<svg width="16" height="16" viewBox="0 0 16 16" fill="none" xmlns="http://www.w3.org/2000/svg">
<path d="M6 1.5L3 2V10L7 9.5L11 11L13.5 10V2.5L10.5 3L6 1.5Z" fill="#FFD100"/>
<path d="M2.66667 10C2.66667 10 3.33334 9.33334 5.33334 9.33334C7.33334 9.33334 8.66667 10.6667 10.6667 10.6667C12.6667 10.6667 13.3333 10 13.3333 10V2.00001C13.3333 2.00001 12.6667 2.66668 10.6667 2.66668C8.66667 2.66668 7.33334 1.33334 5.33334 1.33334C3.33334 1.33334 2.66667 2.00001 2.66667 2.00001V10Z" fill="#09294E" stroke="black" stroke-width="2" stroke-linecap="round" stroke-linejoin="round"/>
<path d="M2.66667 14.6667V10" stroke="#09294E" stroke-width="2" stroke-linecap="round" stroke-linejoin="round"/>
</svg>
