<?xml version="1.0" encoding="UTF-8"?>
<svg id="Layer_1" data-name="Layer 1" xmlns="http://www.w3.org/2000/svg" viewBox="0 0 432 106.94">
  <defs>
    <style>
      .cls-1 {
        fill: #fff;
      }

      .cls-2 {
        fill: none;
      }
    </style>
  </defs>
  <g>
    <path class="cls-1" d="M124.63,84.45v-1.72h-.68c-.42-.1-.95-.06-1.35-.15-1.83-.41-2.94-.87-3.59-1.71-.01,0-.02,0-.03,0,0-4.44-.02-27.65,0-34.96,.02,0,.04,0,.05,0,.25-1.2,.08-.39,.87-1.45,.89-1.2,.78-2.28-.02-3.55-9.42-15.1-32.24-15.04-41.52,.14-.73,1.2-1.08,2.23,.02,3.48,.41,.47,.73,.97,.98,1.49,.02,0,.04,0,.05,0l-.04,34.77c-.7,.81-1.96,1.23-4.25,1.86-.11,.03-.23,.05-.34,.08h-.93v1.72h-1.52v3.44h53.95v-3.44h-1.64Zm-11.3-4.28c-.39,.88-1.16,1.28-2.2,1.32-.96,.03-1.61-.34-2.05-1.05,0-5.8-.02-27.44,0-34.33,1.55-.02,2.99-.04,4.29-.06l-.04,34.13Zm-9.84-34l-.04,33.58c-.14,.05-.31,.07-.52,.07-.35,0-.6-.11-.78-.27-.01-.27-.04-.52-.04-.52l-.33-.13c-.03-.11-.06-.23-.07-.36v-6.51l.39-.87,.08-.18h.23v-.17h-6.42v.17s.23,0,.23,0l.08,.18,.39,.87v5.71c-.01,.12-.03,.28-.04,.49-.01,.22-.03,.46-.08,.68l-.28,.11s-.03,.3-.04,.59c-.16,.17-.38,.28-.7,.29-.14,0-.27,0-.38-.03,0-4.7-.02-25.5,0-33.65,2.75,0,5.61-.03,8.35-.05Zm-13.95,.06l-.04,33.75c-.45,.98-1.2,1.48-2.3,1.52-1.14,.03-1.8-.54-2.22-1.5,0-6.36-.02-26.97,0-33.79,1.37,.02,2.91,.03,4.56,.03Z"/>
    <rect class="cls-2" x="61.49" y="44.78" width="1.8" height="4.96"/>
    <rect class="cls-2" x="65.1" y="44.78" width="1.8" height="4.96"/>
    <polygon class="cls-2" points="59.69 44.78 57.89 44.78 57.89 44.96 57.89 49.75 59.69 49.75 59.69 44.78"/>
    <polygon class="cls-2" points="56.08 44.96 56.08 44.78 54.73 44.78 54.73 49.75 56.08 49.75 56.08 44.96"/>
    <polygon class="cls-2" points="74.12 44.96 74.12 44.78 72.32 44.78 72.32 49.75 74.12 49.75 74.12 44.96"/>
    <rect class="cls-2" x="68.71" y="44.78" width="1.8" height="4.96"/>
    <g>
      <rect class="cls-2" x="39.39" y="65.26" width="5.05" height="5.86"/>
      <rect class="cls-2" x="39.39" y="57.86" width="5.05" height="5.59"/>
      <rect class="cls-2" x="55.18" y="60.39" width="3.61" height="10.28"/>
      <polygon class="cls-2" points="56.08 44.96 56.08 44.78 54.73 44.78 54.73 49.75 56.08 49.75 56.08 44.96"/>
      <rect class="cls-2" x="32.63" y="72.93" width="4.96" height="5.68"/>
      <rect class="cls-2" x="32.63" y="65.26" width="4.96" height="5.86"/>
      <rect class="cls-2" x="39.39" y="72.93" width="5.05" height="5.68"/>
      <rect class="cls-2" x="32.63" y="57.86" width="4.96" height="5.59"/>
      <rect class="cls-2" x="61.49" y="44.78" width="1.8" height="4.96"/>
      <polygon class="cls-2" points="72.32 49.75 74.12 49.75 74.12 44.96 74.12 44.78 72.32 44.78 72.32 49.75"/>
      <rect class="cls-2" x="68.71" y="44.78" width="1.8" height="4.96"/>
      <polygon class="cls-2" points="57.89 44.96 57.89 49.75 59.69 49.75 59.69 44.78 57.89 44.78 57.89 44.96"/>
      <rect class="cls-2" x="66.91" y="60.39" width="3.61" height="10.28"/>
      <rect class="cls-2" x="60.5" y="60.39" width="4.51" height="10.28"/>
      <rect class="cls-2" x="65.1" y="44.78" width="1.8" height="4.96"/>
      <path class="cls-1" d="M76.32,46.32c-1.03-1.17-1.37-2.32-1.38-3.34h-6.32v-10.19l1.44,.72,2.07-3.97-29.68-15.25-9.02,4.51v-6.5h-8.84v10.92l-12.45,6.22,1.98,4.06,28.15-14.16,24.45,12.54v11.1h-13.08v-14.97l-11.37-5.77-24.09,12.18v43.39h-5.95v10.1h57.36v-6.17h1.52v-1.72h3.34c.55-.15,1.52-.42,2.18-.67l.04-32.54c-.11-.17-.22-.33-.35-.48Zm-38.73,32.29h-4.96v-5.68h4.96v5.68Zm0-7.49h-4.96v-5.86h4.96v5.86Zm0-7.67h-4.96v-5.59h4.96v5.59Zm0-15.52h-4.96v-4.69h4.96v4.69Zm0-6.49h-4.96v-5.59h4.96v5.59Zm6.86,37.17h-5.05v-5.68h5.05v5.68Zm0-7.49h-5.05v-5.86h5.05v5.86Zm0-7.67h-5.05v-5.59h5.05v5.59Zm0-15.52h-5.05v-4.69h5.05v4.69Zm0-6.49h-5.05v-5.59h5.05v5.59Zm17.05,3.34h1.8v4.96h-1.8v-4.96Zm-6.77,0h1.35v4.96h-1.35v-4.96Zm4.06,25.89h-3.61v-10.28h3.61v10.28Zm.9-20.93h-1.8v-4.96h1.8v4.96Zm5.32,20.93h-4.51v-10.28h4.51v10.28Zm.09-25.89h1.8v4.96h-1.8v-4.96Zm5.41,25.89h-3.61v-10.28h3.61v10.28Zm0-20.93h-1.8v-4.96h1.8v4.96Zm3.61-4.78v4.78h-1.8v-4.96h1.8v.18Z"/>
    </g>
    <g>
      <path class="cls-1" d="M145.81,20.56l-10.53,9.46-.02-3.92-7.53,.05,.06,10.44-4.93,4.33c.8,2.23,.07,4.01-.8,5.17-.14,.18-.26,.34-.38,.47,0,.55,0,1.18,0,1.86l24.16-21.44h.01s26.62,23.04,26.62,23.04l2.94-3.9-29.6-25.57Z"/>
      <path class="cls-1" d="M168.18,77.77l-.18-27.64-22.4-19.18-18.08,16.26-5.85,5.2c0,2.8,0,6.02,0,9.28l.11,17.84c.3,.11,.74,.24,1.4,.39,.03,0,.13,0,.22,0,.23,.01,.49,.03,.79,.07h3.16v1.72h1.64v6.15h.29s1.27-.01,1.27-.01l-.02-2.77h1.59s-.1-17.02-.1-17.02l12.07-.08,.1,17.01h1.52s.02,2.86,.02,2.86h22.52s5.05,0,5.05,0v-10.1h-5.12Zm-25.42-25.17l-.06-10.59,6.51-.04,.06,10.59-6.51,.04Zm5.92,25.98l-.06-10.59,6.51-.04,.06,10.59-6.51,.04Zm9.82-.06l-.06-10.59,6.51-.04,.06,10.59-6.51,.04Z"/>
    </g>
    <polygon class="cls-1" points="142.68 85.96 142.58 69.52 133.48 69.58 133.58 86.02 132.28 86.03 132.29 87.87 143.99 87.88 143.98 85.96 142.68 85.96"/>
    <rect class="cls-2" x="148.64" y="67.97" width="6.51" height="10.59" transform="translate(-.44 .92) rotate(-.35)"/>
    <rect class="cls-2" x="142.72" y="41.99" width="6.51" height="10.59" transform="translate(-.28 .88) rotate(-.34)"/>
    <path class="cls-2" d="M121.78,79.54l-.11-17.84c0,7.08,0,14.33,.01,17.8,.03,.01,.07,.02,.1,.04Z"/>
    <rect class="cls-2" x="158.46" y="67.91" width="6.51" height="10.59" transform="translate(-.44 .97) rotate(-.34)"/>
  </g>
  <g>
    <g>
      <path class="cls-1" d="M198.06,67.55c-.47-.68-1.1-1.24-1.91-1.68-.8-.44-1.71-.65-2.71-.65-.54,0-1.08,.08-1.62,.23-.55,.15-1.04,.4-1.49,.74-.45,.34-.81,.77-1.09,1.27s-.42,1.12-.42,1.82,.13,1.26,.39,1.72c.26,.46,.6,.85,1.04,1.17,.44,.32,.95,.59,1.54,.81,.59,.22,1.22,.45,1.89,.69,.8,.26,1.62,.55,2.44,.88,.83,.33,1.57,.77,2.24,1.31,.67,.54,1.21,1.22,1.64,2.04,.42,.81,.63,1.85,.63,3.1s-.23,2.43-.69,3.38c-.46,.96-1.07,1.75-1.82,2.37-.76,.63-1.63,1.09-2.63,1.4-.99,.31-2.01,.46-3.06,.46-1.49,0-2.94-.31-4.33-.92-1.39-.61-2.55-1.52-3.46-2.73l2.58-2.3c.56,.87,1.3,1.58,2.24,2.12s1.95,.81,3.04,.81c.56,0,1.11-.08,1.67-.25,.56-.16,1.06-.42,1.52-.78s.83-.8,1.12-1.33c.29-.53,.43-1.17,.43-1.93s-.15-1.39-.45-1.89c-.3-.51-.71-.94-1.22-1.29-.51-.35-1.11-.65-1.79-.9-.68-.25-1.4-.5-2.16-.76-.76-.24-1.51-.52-2.24-.87s-1.39-.78-1.97-1.31c-.58-.53-1.05-1.18-1.4-1.96-.36-.78-.54-1.75-.54-2.9,0-1.25,.24-2.32,.72-3.22s1.1-1.64,1.87-2.23c.77-.59,1.64-1.02,2.61-1.29,.97-.27,1.95-.41,2.93-.41,1.38,0,2.68,.26,3.88,.78,1.2,.52,2.17,1.22,2.91,2.09l-2.34,2.41Z"/>
      <path class="cls-1" d="M214.41,87.98h-3.31v-21.98h-7.59v-3.08h18.49v3.08h-7.59v21.98Z"/>
      <path class="cls-1" d="M235.51,88.61c-1.56,0-2.92-.28-4.08-.83-1.16-.55-2.12-1.29-2.88-2.21-.76-.92-1.32-1.98-1.69-3.17-.37-1.19-.55-2.42-.55-3.7v-15.79h3.31v15.58c0,.85,.1,1.69,.3,2.53s.53,1.59,.99,2.25c.46,.66,1.06,1.19,1.81,1.59s1.68,.6,2.79,.6,2.02-.2,2.78-.6,1.37-.93,1.82-1.59c.46-.66,.79-1.41,.99-2.25s.3-1.68,.3-2.53v-15.58h3.31v15.79c0,1.27-.18,2.51-.55,3.7-.37,1.19-.93,2.25-1.69,3.17s-1.72,1.66-2.88,2.21c-1.16,.55-2.52,.83-4.08,.83Z"/>
      <path class="cls-1" d="M251.63,62.92h8.13c1.52,0,3.03,.24,4.55,.71,1.52,.47,2.89,1.22,4.11,2.23,1.23,1.02,2.22,2.31,2.98,3.89,.76,1.58,1.14,3.48,1.14,5.7s-.38,4.01-1.14,5.58-1.75,2.87-2.98,3.89c-1.23,1.03-2.6,1.79-4.11,2.3-1.52,.51-3.03,.76-4.55,.76h-8.13v-25.06Zm3.31,21.98h4.15c1.43,0,2.75-.21,3.96-.64,1.21-.42,2.26-1.04,3.14-1.84,.88-.8,1.57-1.79,2.06-2.97,.49-1.18,.74-2.51,.74-4s-.25-2.93-.74-4.11-1.18-2.17-2.06-2.96-1.93-1.39-3.14-1.81c-1.22-.41-2.54-.62-3.96-.62h-4.15v18.94Z"/>
      <path class="cls-1" d="M281.73,84.86h12.38v3.11h-15.69v-25.06h15.18v3.08h-11.87v7.5h11.17v3.01h-11.17v8.35Z"/>
      <path class="cls-1" d="M316.55,82.95h.07v-20.04h3.31v25.06h-4.18l-12.51-20.46h-.07v20.46h-3.31v-25.06h4.31l12.38,20.04Z"/>
      <path class="cls-1" d="M335.31,87.98h-3.31v-21.98h-7.59v-3.08h18.49v3.08h-7.59v21.98Z"/>
      <path class="cls-1" d="M359.59,84.86h10.57v3.11h-13.88v-25.06h3.31v21.95Z"/>
      <path class="cls-1" d="M378.02,87.98h-3.31v-25.06h3.31v25.06Z"/>
      <path class="cls-1" d="M388.42,87.98h-3.31v-25.06h14.78v3.08h-11.47v7.79h10.74v3.01h-10.74v11.19Z"/>
      <path class="cls-1" d="M408.75,84.86h12.38v3.11h-15.69v-25.06h15.18v3.08h-11.87v7.5h11.17v3.01h-11.17v8.35Z"/>
    </g>
    <g>
      <path class="cls-1" d="M210.53,40.89c0,1.98-.32,3.79-.97,5.43-.65,1.64-1.54,3.04-2.69,4.21-1.15,1.17-2.51,2.07-4.1,2.71s-3.3,.96-5.15,.96-3.56-.32-5.13-.96-2.93-1.54-4.08-2.71c-1.15-1.17-2.04-2.57-2.69-4.21-.65-1.64-.97-3.45-.97-5.43s.32-3.82,.97-5.43c.65-1.62,1.54-2.99,2.69-4.12s2.51-2.01,4.08-2.62,3.28-.92,5.13-.92,3.57,.31,5.15,.92,2.95,1.49,4.1,2.62,2.05,2.51,2.69,4.12c.65,1.62,.97,3.43,.97,5.43Zm-6.12,0c0-1.09-.17-2.1-.5-3.04-.34-.94-.8-1.75-1.39-2.42-.59-.67-1.3-1.2-2.14-1.59-.84-.39-1.75-.58-2.76-.58s-1.92,.19-2.74,.58c-.82,.39-1.54,.92-2.14,1.59-.6,.67-1.07,1.48-1.39,2.42-.32,.94-.49,1.96-.49,3.04s.17,2.18,.5,3.13c.33,.96,.8,1.78,1.39,2.46,.59,.68,1.3,1.22,2.12,1.61,.83,.39,1.74,.58,2.74,.58s1.92-.19,2.74-.58c.83-.39,1.54-.93,2.14-1.61,.6-.68,1.07-1.5,1.41-2.46,.33-.96,.5-2,.5-3.13Z"/>
      <path class="cls-1" d="M221.3,33.63v5.17h9.16v4.99h-9.16v9.73h-5.65V28.46h15.58v5.17h-9.93Z"/>
      <path class="cls-1" d="M241.9,33.63v5.17h9.16v4.99h-9.16v9.73h-5.65V28.46h15.59v5.17h-9.93Z"/>
      <path class="cls-1" d="M255.21,46.55v-4.6h8.5v4.6h-8.5Z"/>
      <path class="cls-1" d="M285.64,53.08c-1.54,.74-3.31,1.12-5.32,1.12-1.83,0-3.52-.32-5.07-.96s-2.89-1.54-4.03-2.71c-1.14-1.17-2.03-2.57-2.68-4.2-.65-1.63-.97-3.42-.97-5.38s.33-3.82,.99-5.45c.66-1.63,1.57-3.01,2.73-4.16,1.16-1.14,2.52-2.02,4.08-2.64,1.56-.61,3.24-.92,5.05-.92,1.67,0,3.32,.31,4.93,.94,1.62,.63,2.93,1.54,3.93,2.74l-3.88,4.11c-.54-.78-1.24-1.36-2.11-1.73-.87-.38-1.76-.57-2.68-.57-1,0-1.92,.19-2.76,.58-.84,.39-1.56,.93-2.16,1.61-.6,.68-1.07,1.49-1.4,2.42s-.5,1.95-.5,3.06,.17,2.17,.5,3.11c.33,.94,.8,1.75,1.39,2.43,.59,.67,1.3,1.2,2.12,1.57,.82,.38,1.73,.57,2.71,.57,1.14,0,2.13-.24,2.98-.71s1.53-1.09,2.04-1.84l3.98,3.96c-1.05,1.27-2.34,2.28-3.88,3.03Z"/>
      <path class="cls-1" d="M308.96,53.52l-1.84-4.92h-9.16l-1.74,4.92h-6.22l9.93-25.06h5.55l9.83,25.06h-6.35Zm-6.35-18.37l-3.01,8.6h5.95l-2.94-8.6Z"/>
      <path class="cls-1" d="M340.09,53.52l.13-17.73h-.1l-6.15,17.73h-4.01l-5.99-17.73h-.1l.13,17.73h-5.39V28.46h8.14l5.39,16.07h.13l5.16-16.07h8.27v25.06h-5.62Z"/>
      <path class="cls-1" d="M369.86,36.18c0,1.46-.26,2.7-.77,3.7s-1.2,1.81-2.07,2.42c-.87,.61-1.87,1.06-3.01,1.35-1.14,.28-2.32,.42-3.55,.42h-2.84v9.45h-5.72V28.46h8.7c1.29,0,2.5,.14,3.63,.41,1.13,.27,2.11,.71,2.94,1.31,.84,.6,1.49,1.39,1.97,2.37,.48,.98,.72,2.19,.72,3.63Zm-5.72,.03c0-.59-.11-1.07-.33-1.45s-.52-.67-.9-.89c-.38-.21-.81-.35-1.29-.42-.48-.07-.97-.11-1.49-.11h-2.51v5.91h2.41c.54,0,1.05-.05,1.54-.14,.49-.09,.93-.26,1.32-.5,.39-.24,.7-.55,.92-.94,.22-.39,.33-.88,.33-1.47Z"/>
      <path class="cls-1" d="M393.99,48.2c-.48,1.24-1.17,2.3-2.06,3.19-.89,.88-1.97,1.57-3.23,2.07s-2.66,.74-4.2,.74-2.97-.25-4.22-.74-2.31-1.19-3.18-2.07c-.87-.89-1.54-1.95-2.01-3.19-.47-1.24-.7-2.61-.7-4.12v-15.61h5.69v15.12c0,.68,.08,1.33,.25,1.95s.42,1.16,.77,1.65c.34,.48,.8,.87,1.37,1.15s1.25,.42,2.06,.42,1.49-.14,2.06-.42c.57-.28,1.03-.67,1.39-1.15,.36-.48,.61-1.03,.77-1.65,.16-.61,.23-1.26,.23-1.95v-15.12h5.72v15.61c0,1.51-.24,2.89-.72,4.12Z"/>
      <path class="cls-1" d="M413.17,34.97c-.49-.66-1.13-1.19-1.92-1.58-.79-.39-1.56-.58-2.29-.58-.38,0-.76,.04-1.15,.11s-.74,.21-1.05,.41c-.31,.2-.57,.46-.79,.78-.21,.32-.32,.73-.32,1.22,0,.42,.08,.78,.25,1.06s.41,.53,.74,.74,.71,.41,1.15,.58c.45,.18,.95,.36,1.51,.55,.8,.28,1.64,.6,2.51,.94,.87,.34,1.66,.8,2.37,1.36s1.3,1.27,1.77,2.11c.47,.84,.7,1.88,.7,3.13,0,1.44-.25,2.68-.75,3.73s-1.18,1.92-2.02,2.6c-.85,.68-1.82,1.19-2.91,1.52-1.09,.33-2.22,.5-3.38,.5-1.7,0-3.33-.31-4.92-.94-1.58-.63-2.9-1.52-3.95-2.67l3.75-4.04c.58,.76,1.34,1.39,2.29,1.89s1.89,.76,2.83,.76c.42,0,.84-.05,1.24-.14,.4-.09,.75-.25,1.05-.46,.3-.21,.54-.5,.72-.85,.18-.35,.27-.78,.27-1.27s-.11-.87-.34-1.2-.54-.63-.95-.9c-.41-.27-.93-.52-1.54-.74s-1.31-.47-2.09-.73c-.76-.26-1.5-.57-2.22-.92-.73-.35-1.37-.81-1.94-1.36s-1.03-1.23-1.37-2.02c-.35-.79-.52-1.75-.52-2.88,0-1.39,.27-2.58,.8-3.58s1.24-1.81,2.11-2.44c.87-.64,1.85-1.1,2.94-1.4,1.09-.29,2.2-.44,3.31-.44,1.34,0,2.7,.26,4.1,.78,1.39,.52,2.61,1.29,3.66,2.3l-3.65,4.07Z"/>
    </g>
  </g>
</svg>
