<svg xmlns="http://www.w3.org/2000/svg" width="102" height="47" fill="none" viewBox="0 0 102 47"><g fill="#fff" clip-path="url(#a)"><path d="M7.773 6.644V0h5.722v4.107l5.476-2.93 18.728 9.74-1.49 2.457-.953-.425.01 6.149h3.706l1.281 2.18v20.754H36.91v1.24l-.88.073v3.657H0v-6.52h3.822l.01-26.733 14.96-7.593 7.226 3.69.17 9.247h7.739v-6.83L18.683 4.49 1.371 13.163 0 10.725zm8.134 8.17h-3.085v3.401h3.085zm4.343 0h-3.086v3.401h3.086zm-4.343 4.445h-3.085v3.062h3.085zm4.343 0h-3.086v3.062h3.086zm-4.343 9.1h-3.085v3.4h3.085zm4.343.014h-3.086v3.402h3.086zm-4.343 4.701h-3.085v3.401h3.085zm4.22 0H17.04v3.401h3.086zm-4.22 4.699h-3.085v3.401h3.085zm4.22 0H17.04v3.401h3.086zm7.342-17.555h-.945v3.017h.945zm2.2 0h-.945v3.017h.945zm2.2 0h-.945v3.017h.945zm2.2 0h-.945v3.017h.944zm2.2 0h-.945v3.017h.944zm2.2 0h-.944v3.017h.944zm-9.273 9.676h-2.2v6.337h2.2zm7.23 0h-2.2v6.337h2.2zm-3.447.011h-2.682v6.336h2.682z"/><path d="M41.963 20.634s-1.189-1.367-1.189-1.744c0-.378 4.575-8.356 13.194-8.24s13.452 6.992 13.452 6.992.99 1.593-.582 2.992L66.72 42.2s.291 1.272 3.377 1.328v1.329h1.455v1.987H37.371V44.54h1.186l.025-1.071s3.383 0 3.383-1.524zm3.48 20.918s.176 1.39 1.422 1.345c1.246-.043 1.422-1.475 1.422-1.475V21.024h-2.842v20.528zm6.338.434c.966-.037 1.088-1.2 1.11-1.706.036-.867 0-3.471 0-3.471l-.49-.613 4.146-.016-.522.739s.005 1.898.005 3.375 1.049 1.692 1.049 1.692V21.024h-5.073l-.224 20.962zm8.79-.792s.176 1.39 1.422 1.345 1.422-1.475 1.422-1.475V20.666h-2.842v20.528z"/><path d="M68.93 17.606s.547 2.578-.776 3.416v1.665l15.01-13.382 16.652 14.194L102 21.02 83.11 4.916l-6.333 6.014-.054-2.33h-4.858l.027 6.402-2.959 2.603zm5.908 28.046v1.192h7.285v-1.192h-.892l-.022-10.258h-5.747l.044 10.252z"/><path d="m68.152 24.802 14.894-13.34L96.999 23.5v17.003h3.286v6.341h-17.03l-.01-1.941H82.18V34.358l-7.541.035v10.552l-1.014.011v1.888h-.9l-.06-3.9-1.032-.004.011-1.217-3.326-.027-.168-16.894zm20.774 9.596h-3.85v6.458h3.85zm6.125 0H91.2v6.458h3.85zm-9.735-16.034h-3.85v6.458h3.85z"/></g><defs><clipPath id="a"><path fill="#fff" d="M0 0h102v47H0z"/></clipPath></defs></svg>
