<svg xmlns="http://www.w3.org/2000/svg" width="271" height="72" fill="none" viewBox="0 0 271 72"><path fill="#fff" d="M161.023 48.704q-.744-1.085-2.02-1.78-1.276-.693-2.869-.695-.85 0-1.717.245a4.7 4.7 0 0 0-1.576.788 4.3 4.3 0 0 0-1.153 1.349q-.443.806-.444 1.932c0 .75.135 1.331.409 1.819q.406.73 1.098 1.237a6.8 6.8 0 0 0 1.628.861q.938.358 2.003.733 1.273.412 2.586.937a9.2 9.2 0 0 1 2.373 1.386 6.75 6.75 0 0 1 1.737 2.157q.674 1.295.674 3.281c0 1.325-.242 2.569-.727 3.582q-.726 1.519-1.932 2.513a8 8 0 0 1-2.782 1.48 11 11 0 0 1-3.24.487q-2.373 0-4.586-.975a9.16 9.16 0 0 1-3.666-2.886l2.727-2.438a6.8 6.8 0 0 0 2.373 2.25 6.3 6.3 0 0 0 4.994.6 4.9 4.9 0 0 0 1.611-.827 4.45 4.45 0 0 0 1.188-1.407q.46-.844.461-2.043 0-1.2-.478-2.005a4.4 4.4 0 0 0-1.294-1.37 8.4 8.4 0 0 0-1.894-.957q-1.082-.393-2.285-.805a18 18 0 0 1-2.373-.92 8.1 8.1 0 0 1-2.09-1.386 6.4 6.4 0 0 1-1.489-2.081q-.567-1.239-.566-3.074 0-1.986.762-3.412a7.2 7.2 0 0 1 1.984-2.361 8.1 8.1 0 0 1 2.765-1.37 11.4 11.4 0 0 1 3.099-.431q2.196-.001 4.11.826 1.914.823 3.083 2.212l-2.481 2.548zm22.066 15.485h.07l7.403-20.397h5.455v26.544h-3.508V48.141h-.07l-8.325 22.195h-2.23l-8.29-22.195h-.07v22.195h-3.4V43.792h5.455zm21.466 6.151h-3.897l10.876-26.545h3.187l10.768 26.544h-3.967l-2.551-6.524h-11.903l-2.516 6.524zm3.756-9.788h9.387l-4.676-12.446zm25.327 9.788h-3.508V43.794h8.041q1.808 0 3.436.394 1.63.394 2.852 1.255 1.22.863 1.929 2.268.71 1.406.709 3.43 0 2.924-1.698 4.725-1.7 1.8-4.393 2.286l7.014 12.186h-4.25l-6.375-11.81h-3.754v11.81zm0-14.922h4.037q1.24 0 2.303-.225a5.6 5.6 0 0 0 1.86-.733 3.75 3.75 0 0 0 1.258-1.313q.46-.806.461-2.005-.001-1.2-.461-2.006a3.7 3.7 0 0 0-1.223-1.293 5.2 5.2 0 0 0-1.79-.694 11 11 0 0 0-2.16-.208h-4.285zm28.019 14.921h-3.506V47.055h-8.041v-3.263h19.588v3.263h-8.041zm-92.067-54.72q-.001 2.368-.829 3.987-.83 1.622-2.236 2.612-1.406.993-3.246 1.451a15.7 15.7 0 0 1-3.821.458h-3.065v10.187h-6.164V7.297h9.372q2.09 0 3.912.44 1.82.438 3.172 1.414 1.353.972 2.128 2.557t.774 3.91zm-6.165.038q-.002-.953-.362-1.565a2.6 2.6 0 0 0-.972-.954 4 4 0 0 0-1.386-.458 11 11 0 0 0-1.606-.114h-2.706v6.372h2.595q.866 0 1.658-.152a4.3 4.3 0 0 0 1.425-.534q.63-.38.992-1.01.36-.63.362-1.585m26.462 18.66-1.982-5.303h-9.877l-1.874 5.303h-6.705L180.156 7.3h5.984l10.598 27.017zm-6.85-19.804-3.246 9.273h6.416l-3.173-9.273zm30.931 19.804-5.543-10.724h-2.101v10.724h-6.022V7.3h9.735q1.838 0 3.587.4a9 9 0 0 1 3.138 1.354q1.387.956 2.218 2.52.829 1.566.829 3.89 0 2.748-1.407 4.618-1.406 1.869-3.894 2.67l6.67 11.562h-7.21zm-.254-18.736q-.001-.953-.379-1.544a2.7 2.7 0 0 0-.978-.917 4.1 4.1 0 0 0-1.34-.437 9.5 9.5 0 0 0-1.43-.114h-3.295v6.296h2.933q.762 0 1.559-.135a4.8 4.8 0 0 0 1.448-.478q.652-.343 1.068-.993t.417-1.678zm22.426-2.709v21.445h-6.165V12.872h-7.209V7.3h20.584v5.572zm25.056 9.998v11.447h-6.165V22.87L245.439 7.3h7.464l5.444 9.997L263.79 7.3H271l-9.807 15.57zM136.697 3.313a.4.4 0 0 1 .248.082c.3.23 1.217.72 2.131.744a.45.45 0 0 1 .35.166.43.43 0 0 1 .073.383l-.374 1.328a.74.74 0 0 1-.706.549h-.05a4.6 4.6 0 0 1-1.398-.348.4.4 0 0 0-.169-.035.46.46 0 0 0-.441.342l-1.206 4.293c-.218.783-1.021 1.282-1.941 1.282-.23 0-.47-.032-.709-.1-1.185-.332-1.923-1.4-1.649-2.381.219-.783 1.019-1.276 1.932-1.276a2.67 2.67 0 0 1 1.521.482.34.34 0 0 0 .204.067c.158 0 .31-.105.359-.272l1.401-4.988a.44.44 0 0 1 .418-.318m-7.697 9.466c-.333.94-1.282 1.564-2.42 1.564q-.449.001-.893-.125c-1.518-.426-2.42-1.784-2.055-3.088a2.13 2.13 0 0 1 .569-.949l-.452-.245c-.458.598-1.223.969-2.102.969q-.449.002-.893-.126c-1.518-.426-2.42-1.783-2.055-3.088q.063-.208.161-.4l-1.574-.852-.866 3.082a2.3 2.3 0 0 1-.38.75l20.152 10.663.785-3.841-7.977-4.317z"/><path fill="#fff" d="M117.33 1.816a.4.4 0 0 1 .248.081c.301.23 1.217.721 2.131.745a.45.45 0 0 1 .35.166.43.43 0 0 1 .073.382l-.374 1.328a.74.74 0 0 1-.706.55h-.05a4.6 4.6 0 0 1-1.398-.348.4.4 0 0 0-.169-.035.464.464 0 0 0-.441.341l-1.205 4.294c-.219.782-1.022 1.281-1.941 1.281q-.348 0-.71-.099c-1.185-.333-1.923-1.401-1.649-2.382.219-.782 1.019-1.275 1.933-1.275q.35 0 .715.099c.3.085.572.216.805.382a.35.35 0 0 0 .205.068.38.38 0 0 0 .359-.272l1.401-4.988a.44.44 0 0 1 .417-.318m5.896 67.029V51.34h-9.944v17.505h-1.361v1.964h12.73v-1.964z"/><path fill="#fff" d="m108.836 9.577-10.52 5.184 1.256.385.023.009 1.839.598c.125.035.251.076.379.111l1.451.345q.24.053.484.102c.234.044.47.079.707.12l1.024.148c1.089.137 2.187.21 3.278.21l1.755-.064a27 27 0 0 0 1.535-.146l1.01-.146c.242-.04.481-.076.721-.122.163-.032.327-.07.49-.105l1.41-.336q.236-.066.473-.137l1.751-.572s.018-.006.029-.012l1.296-.426.634.318-.511 4.08-3.322-2.97q-.063.017-.125.037l-1.501 4.227-2.711-3.427q-.415.043-.829.079l-2.102 3.864-2.148-3.867c-.263-.02-.523-.047-.785-.073l-2.715 3.427-1.506-4.23-.067-.02-3.368 2.948-.651-3.964-8.348 4.113a24.9 24.9 0 0 1 5.058 5.84c1.71 2.741.887 4.901-.105 6.23a8 8 0 0 1-.362.451c-.009 4.122-.009 12.333-.006 19.548h5.628v5.534H93.76v1.828h5.622v5.534h-.272v.78h1.547v5.802h10l.021-2.808 1.381.009.105-17.972 12.224.067-.105 17.972 1.38.009-.02 2.72 9.089.006V22.408L108.836 9.571zm-1.459 54.662h-5.859v-5.535h5.859zm0-7.362h-5.859v-5.534h5.859zm14.527-16.26h-1.319v4.617h1.319v1.26H95.695v-1.26h1.31v-4.618h-1.31v-2.221h1.258V23.158h23.696v15.237h1.258v2.221zM3.418 66.302v3.576c0 .867.633 1.567 1.41 1.567h4.387c.776 0 1.421-.703 1.421-1.567v-3.576z"/><path fill="#fff" fill-rule="evenodd" d="M8.117 28.328H4.133c-1.839 0-2.434 2.895-.686 3.447l1.85.58.266.083M41.635 21.2H13.33l.437-1.874h27.467z" clip-rule="evenodd"/><path fill="#fff" d="M21.089 19.989h-7.172l.908-4.513a1.8 1.8 0 0 1 1.763-1.442h1.83a1.8 1.8 0 0 1 1.763 1.442l.908 4.515zm-6.264-.742h5.359l-.73-3.625a1.06 1.06 0 0 0-1.036-.844h-1.83a1.06 1.06 0 0 0-1.036.847l-.73 3.625zm26.252.742h-7.171l.907-4.513a1.8 1.8 0 0 1 1.763-1.442h1.83a1.8 1.8 0 0 1 1.764 1.442l.907 4.515zm-6.267-.745h5.36l-.73-3.625c-.1-.49-.534-.844-1.036-.844h-1.83a1.06 1.06 0 0 0-1.037.847l-.73 3.625zm73.95-17.408-8.062 4.028V0h-8.187v9.956L82.213 15.1a25 25 0 0 1 4.565 2.388l21.816-10.972h.33l2.078 1.1c.409-.843 1.334-1.389 2.423-1.389a3.3 3.3 0 0 1 1.555.391l.345-1.229-6.568-3.552zM96.606 67.572v-1.626h-.645c-.394-.093-.896-.055-1.279-.14-1.725-.388-2.773-.82-3.391-1.617q-.016 0-.032-.006c-.003-4.191-.024-26.106 0-33.004h.05c.233-1.135.07-.367.817-1.366.843-1.132.732-2.154-.015-3.35-4.43-7.105-12.005-10.657-19.574-10.657-7.621 0-15.234 3.599-19.63 10.785-.691 1.133-1.018 2.104.015 3.284.385.44.686.91.92 1.407.014 0 .035.003.052.005l-.038 32.826c-.657.768-1.848 1.165-4.01 1.76-.105.03-.213.05-.324.073h-.876v1.626h-1.43v3.252H98.15v-3.252h-1.547zm-33.161-4.224c-.42.929-1.13 1.401-2.172 1.433h-.09c-1.02 0-1.623-.537-2.009-1.418-.005-6.007-.02-25.464 0-31.906 1.29.014 2.744.023 4.306.026l-.038 31.865zm13.167-.219a1.5 1.5 0 0 1-.464.068h-.024c-.33-.003-.566-.103-.738-.257a9 9 0 0 0-.038-.494l-.31-.12a3 3 0 0 1-.07-.335v-6.144l.365-.823.073-.17h.216v-.157h-6.065v.157h.213l.073.17.365.823v5.388a7 7 0 0 0-.038.464c-.012.205-.03.43-.076.645l-.266.102s-.029.284-.04.558c-.152.16-.363.269-.666.277h-.053q-.166 0-.303-.032c-.003-4.434-.02-24.075-.003-31.772 2.598-.009 5.292-.026 7.887-.05l-.035 31.702zm9.326.4c-.365.832-1.098 1.212-2.073 1.244h-.102c-.852 0-1.436-.348-1.833-.99-.006-5.476-.02-25.905 0-32.414 1.46-.02 2.825-.038 4.045-.061z"/><path fill="#fff" fill-rule="evenodd" d="m49.945 32.359 1.299-.409a3 3 0 0 0-.29-.391c-.995-1.136-1.304-2.248-1.292-3.231h-2.537l2.554 4.112zm1.331 16.381a.7.7 0 0 1-.266.09l-9.953.843c-.601.05-.984-.201-.984-.8v-2.002c0-.435.391-.96.818-1l9.953-.844c.163-.015.31 0 .438.029l.009-8.69-1.991-3.205-5.45-8.777c-.718-1.153-2.052-1.935-3.412-1.935H14.816c-1.369 0-2.703.785-3.42 1.935l-5.45 8.777-3.004 4.849-1.135 1.818C.379 42.131.047 46.11.047 49.798L0 58.709h51.261l.012-9.966zM6.389 36.937l7.026-11.304c.283-.459.858-.818 1.401-.818h25.622c.534 0 1.11.36 1.401.818l7.017 11.304c.292.467 0 1.034-.592 1.034H6.982c-.593 0-.884-.567-.593-1.034m8.783 11.933c0 .601-.382.852-.975.8l-9.962-.844c-.426-.032-.817-.566-.817-.992v-2.003c0-.61.382-.858.984-.808l9.953.843c.426.041.817.567.817 1.001zm19.732 7.008a.503.503 0 0 1-.5.502H20.839a.5.5 0 0 1-.5-.502v-2.087a.5.5 0 0 1 .5-.5h13.567a.5.5 0 0 1 .499.5zm3.555-.467a.976.976 0 0 1-.969.969.976.976 0 0 1-.969-.97v-6.54c0-.4-.333-.736-.736-.736H19.457a.736.736 0 0 0-.735.736v6.54c0 .535-.441.97-.97.97a.974.974 0 0 1-.968-.97v-6.54a2.68 2.68 0 0 1 2.67-2.671h16.328a2.68 2.68 0 0 1 2.671 2.67v6.542z" clip-rule="evenodd"/><path fill="#fff" d="M44.329 65.018h1.72v-1.626h3.137c.52-.143 1.445-.4 2.072-.636v-2.93H1.512c-.832 0-1.51.586-1.51 1.31v3.076c0 .724.675 1.31 1.51 1.31h42.82v-.507zM124.7 2.055a.55.55 0 0 1 .324.105c1.571 1.124 2.528 1.436 4.659 1.436q.227.002.476-.006h.005a.56.56 0 0 1 .54.707l-2.288 8.143c-.213.753-.96 1.223-1.842 1.223q-.35.002-.718-.102c-1.167-.327-1.871-1.33-1.602-2.283.21-.744.975-1.214 1.856-1.214q.344-.001.701.1.294.083.548.224a.4.4 0 0 0 .184.047c.158 0 .31-.1.356-.269l1.051-3.742c-2.069-.032-2.91-.26-4.404-1.21l-1.063 3.785c-.213.753-.96 1.223-1.842 1.223a2.6 2.6 0 0 1-.718-.102c-1.167-.327-1.871-1.331-1.602-2.283.21-.744.975-1.214 1.856-1.214q.344-.001.701.1.294.083.548.224a.4.4 0 0 0 .184.047c.158 0 .31-.1.356-.269l1.2-4.267a.555.555 0 0 1 .534-.406m-10.388 38.564h-1.203v4.618h1.203zm-4.956 0h-1.203v4.618h1.203zm9.868-16.071h-4.194v13.85h4.194zm-7.39 16.071h-1.203v4.618h1.203zm1.812-16.071h-9.772v13.85h9.772zm5.625 16.071h-1.203v4.618h1.203zm-2.478 0h-1.203v4.618h1.203zm-12.394 0h-1.202v4.618h1.202zm-4.956 0h-1.202v4.618h1.202zm2.478 0h-1.202v4.618h1.202zm4.957 0h-1.203v4.618h1.203zm-4.388-16.071h-4.194v13.85h4.194z"/></svg>
