<svg width="271" height="72" viewBox="0 0 271 72" fill="none" xmlns="http://www.w3.org/2000/svg">
<path d="M161.023 48.7043C160.526 47.9805 159.855 47.3879 159.003 46.9238C158.153 46.4627 157.196 46.2291 156.134 46.2291C155.567 46.2291 154.995 46.3109 154.417 46.4743C153.839 46.6378 153.314 46.9005 152.841 47.2624C152.368 47.6244 151.986 48.0739 151.688 48.6109C151.393 49.148 151.244 49.7931 151.244 50.5432C151.244 51.2934 151.379 51.8742 151.653 52.3617C151.924 52.8491 152.289 53.2607 152.751 53.5993C153.212 53.9379 153.755 54.2239 154.379 54.4604C155.004 54.6997 155.672 54.942 156.382 55.193C157.231 55.4674 158.092 55.7797 158.968 56.13C159.84 56.4802 160.631 56.9414 161.341 57.5164C162.05 58.0914 162.628 58.8095 163.078 59.6735C163.527 60.5375 163.752 61.6291 163.752 62.9543C163.752 64.2795 163.51 65.5229 163.025 66.5358C162.54 67.5486 161.898 68.3863 161.093 69.0489C160.29 69.7115 159.362 70.2048 158.311 70.5288C157.26 70.8528 156.18 71.0162 155.071 71.0162C153.489 71.0162 151.96 70.6922 150.485 70.0413C149.009 69.3904 147.786 68.4301 146.819 67.1546L149.546 64.7173C150.135 65.6426 150.926 66.3927 151.919 66.9678C152.911 67.5428 153.985 67.8288 155.141 67.8288C155.731 67.8288 156.323 67.7413 156.913 67.5661C157.502 67.391 158.04 67.1166 158.524 66.7401C159.009 66.3665 159.403 65.8965 159.712 65.3332C160.019 64.7698 160.173 64.0897 160.173 63.29C160.173 62.4902 160.013 61.8218 159.695 61.2847C159.376 60.7476 158.944 60.2923 158.401 59.9158C157.859 59.5421 157.228 59.2211 156.507 58.9584C155.786 58.6957 155.024 58.4271 154.222 58.1527C153.419 57.9046 152.628 57.5982 151.849 57.2333C151.069 56.8714 150.372 56.4102 149.759 55.8468C149.146 55.2835 148.65 54.5917 148.27 53.7657C147.891 52.9396 147.704 51.9151 147.704 50.6921C147.704 49.3669 147.958 48.2315 148.466 47.2799C148.974 46.3313 149.633 45.5432 150.45 44.9186C151.265 44.2939 152.187 43.8386 153.215 43.5496C154.242 43.2607 155.275 43.1176 156.314 43.1176C157.777 43.1176 159.149 43.392 160.424 43.9437C161.7 44.4924 162.727 45.2309 163.507 46.1562L161.026 48.7043H161.023Z" fill="white"/>
<path d="M183.089 64.189H183.159L190.562 43.7919H196.017V70.3361H192.509V48.141H192.439L184.114 70.3361H181.884L173.594 48.141H173.524V70.3361H170.124V43.7919H175.579L183.089 64.189Z" fill="white"/>
<path d="M204.555 70.3391H200.658L211.534 43.7948H214.721L225.489 70.3391H221.522L218.971 63.8154H207.068L204.552 70.3391H204.555ZM208.311 60.5521H217.698L213.022 48.106L208.311 60.5521Z" fill="white"/>
<path d="M233.638 70.3391H230.13V43.7948H238.171C239.377 43.7948 240.521 43.9261 241.607 44.1888C242.693 44.4515 243.644 44.8689 244.459 45.444C245.273 46.019 245.915 46.775 246.388 47.7119C246.861 48.6489 247.097 49.7931 247.097 51.1416C247.097 53.0914 246.531 54.6647 245.399 55.8673C244.266 57.0669 242.801 57.8287 241.006 58.1527L248.02 70.3391H243.77L237.395 58.5293H233.641V70.3391H233.638ZM233.638 55.4178H237.675C238.501 55.4178 239.269 55.3419 239.978 55.193C240.687 55.0441 241.306 54.799 241.838 54.4604C242.369 54.1218 242.786 53.6869 243.096 53.1469C243.402 52.6098 243.557 51.9414 243.557 51.1416C243.557 50.3418 243.402 49.6734 243.096 49.1363C242.789 48.5993 242.38 48.1673 241.873 47.8433C241.365 47.5193 240.769 47.2858 240.083 47.1486C239.397 47.0114 238.679 46.9414 237.923 46.9414H233.638V55.4148V55.4178Z" fill="white"/>
<path d="M261.657 70.339H258.151V47.0552H250.11V43.7919H269.698V47.0552H261.657V70.339Z" fill="white"/>
<path d="M169.59 15.6189C169.59 17.198 169.312 18.5261 168.761 19.6061C168.209 20.6861 167.462 21.5588 166.525 22.2185C165.588 22.8811 164.505 23.3627 163.279 23.6692C162.053 23.9756 160.78 24.1274 159.458 24.1274H156.393V34.3143H150.229V7.29719H159.601C160.994 7.29719 162.298 7.44314 163.513 7.73794C164.727 8.02983 165.783 8.49977 166.685 9.15068C167.587 9.79867 168.297 10.651 168.813 11.7076C169.33 12.7642 169.587 14.069 169.587 15.6189H169.59ZM163.425 15.6568C163.425 15.0205 163.302 14.501 163.063 14.0923C162.824 13.6866 162.497 13.3685 162.091 13.1379C161.682 12.9102 161.218 12.7555 160.705 12.6796C160.188 12.6037 159.654 12.5658 159.099 12.5658H156.393V18.9377H158.988C159.566 18.9377 160.118 18.888 160.646 18.7859C161.175 18.6837 161.65 18.5057 162.071 18.2517C162.491 17.9978 162.821 17.6621 163.063 17.2418C163.302 16.8215 163.425 16.2932 163.425 15.6568Z" fill="white"/>
<path d="M189.887 34.3172L187.905 29.0136H178.028L176.154 34.3172H169.449L180.156 7.30011H186.14L196.738 34.3172H189.887ZM183.037 14.5127L179.791 23.7859H186.207L183.034 14.5127H183.037Z" fill="white"/>
<path d="M213.968 34.3172L208.425 23.5933H206.324V34.3172H200.302V7.30011H210.037C211.262 7.30011 212.459 7.43438 213.624 7.7C214.788 7.96562 215.836 8.41804 216.762 9.05435C217.687 9.69067 218.425 10.5313 218.98 11.5733C219.532 12.6183 219.809 13.9143 219.809 15.4642C219.809 17.2973 219.339 18.8355 218.402 20.0819C217.465 21.3282 216.166 22.2185 214.508 22.7526L221.178 34.3143H213.968V34.3172ZM213.714 15.581C213.714 14.9446 213.586 14.4309 213.335 14.0369C213.081 13.6428 212.754 13.3363 212.357 13.1204C211.957 12.9044 211.511 12.7584 211.017 12.6825C210.521 12.6066 210.045 12.5687 209.587 12.5687H206.292V18.8647H209.225C209.733 18.8647 210.253 18.8209 210.784 18.7304C211.315 18.6399 211.797 18.4823 212.232 18.2517C212.666 18.0241 213.023 17.6913 213.3 17.2593C213.577 16.8273 213.717 16.2669 213.717 15.581H213.714Z" fill="white"/>
<path d="M236.14 12.8722V34.3172H229.975V12.8722H222.766V7.30011H243.35V12.8722H236.14Z" fill="white"/>
<path d="M261.196 22.8694V34.3172H255.031V22.8694L245.439 7.30011H252.903L258.347 17.2973L263.79 7.30011H271L261.193 22.8694H261.196Z" fill="white"/>
<path d="M136.697 3.31292C136.784 3.31292 136.872 3.3392 136.945 3.39465C137.245 3.62524 138.162 4.11561 139.076 4.13897C139.21 4.14188 139.341 4.19734 139.426 4.30534C139.51 4.41334 139.537 4.55345 139.499 4.68771L139.125 6.0158C139.035 6.33688 138.746 6.56455 138.419 6.56455C138.401 6.56455 138.387 6.56455 138.369 6.56455C137.756 6.52077 137.216 6.32229 136.971 6.21721C136.916 6.19385 136.86 6.18218 136.802 6.18218C136.603 6.18218 136.416 6.31937 136.361 6.52369L135.155 10.8174C134.937 11.5996 134.134 12.0987 133.214 12.0987C132.984 12.0987 132.744 12.0666 132.505 11.9995C131.32 11.6667 130.582 10.5984 130.856 9.6177C131.075 8.83544 131.875 8.34215 132.788 8.34215C133.022 8.34215 133.261 8.37425 133.503 8.44139C133.804 8.52603 134.076 8.65739 134.309 8.82376C134.373 8.87046 134.443 8.89089 134.513 8.89089C134.671 8.89089 134.823 8.78581 134.872 8.61944L136.273 3.63108C136.311 3.49681 136.414 3.3859 136.545 3.33919C136.592 3.32168 136.641 3.31292 136.691 3.31292" fill="white"/>
<path d="M128.994 12.7788C128.661 13.7187 127.712 14.3434 126.574 14.3434C126.276 14.3434 125.976 14.3025 125.681 14.2178C124.163 13.7917 123.261 12.4344 123.626 11.1297C123.728 10.7648 123.927 10.4437 124.195 10.181L123.743 9.93585C123.285 10.5342 122.52 10.9049 121.641 10.9049C121.343 10.9049 121.043 10.8641 120.748 10.7794C119.23 10.3533 118.328 8.99597 118.693 7.69124C118.734 7.55113 118.789 7.41978 118.854 7.29135L117.28 6.43904L116.414 9.52137C116.335 9.79866 116.203 10.0497 116.034 10.2715L136.186 20.9342L136.971 17.0929L128.994 12.7759V12.7788Z" fill="white"/>
<path d="M117.33 1.81554C117.418 1.81554 117.505 1.84181 117.578 1.89727C117.879 2.12786 118.795 2.61823 119.709 2.64158C119.843 2.6445 119.974 2.69996 120.059 2.80796C120.144 2.91596 120.17 3.05606 120.132 3.19033L119.758 4.51842C119.668 4.8395 119.379 5.06717 119.052 5.06717C119.035 5.06717 119.02 5.06717 119.002 5.06717C118.389 5.02339 117.849 4.8249 117.604 4.71982C117.549 4.69647 117.493 4.6848 117.435 4.6848C117.237 4.6848 117.05 4.82198 116.994 5.0263L115.789 9.31997C115.57 10.1022 114.767 10.6014 113.848 10.6014C113.617 10.6014 113.378 10.5692 113.138 10.5021C111.953 10.1694 111.215 9.10105 111.489 8.12031C111.708 7.33805 112.508 6.84476 113.422 6.84476C113.655 6.84476 113.894 6.87687 114.137 6.94401C114.437 7.02865 114.709 7.16 114.942 7.32638C115.007 7.37308 115.077 7.39351 115.147 7.39351C115.304 7.39351 115.456 7.28843 115.506 7.12206L116.907 2.1337C116.945 1.99943 117.047 1.88851 117.178 1.84181C117.225 1.8243 117.274 1.81554 117.324 1.81554" fill="white"/>
<path d="M123.22 68.8446V51.3401H113.276V68.8446H111.915V70.809H124.645V68.8446H123.22Z" fill="white"/>
<path d="M108.836 9.57683L98.3165 14.7608L99.5716 15.146C99.5716 15.146 99.5862 15.1519 99.5949 15.1548L101.434 15.7532C101.559 15.7882 101.685 15.8291 101.813 15.8641L103.264 16.2085C103.424 16.2435 103.585 16.2786 103.748 16.3107C103.982 16.3545 104.218 16.3895 104.455 16.4303L105.479 16.5792C106.568 16.7164 107.666 16.7894 108.757 16.7894L110.512 16.7252C111.025 16.6901 111.536 16.6434 112.047 16.5792L113.057 16.4333C113.299 16.3924 113.538 16.3574 113.778 16.3107C113.941 16.2786 114.105 16.2406 114.268 16.2056L115.678 15.8699C115.836 15.8261 115.993 15.7794 116.151 15.7327L117.902 15.1606C117.902 15.1606 117.92 15.1548 117.931 15.149L119.227 14.7228L119.861 15.041L119.35 19.1216L116.028 16.1501C115.987 16.1618 115.944 16.1764 115.903 16.1881L114.402 20.4146L111.691 16.9879C111.413 17.017 111.139 17.0433 110.862 17.0667L108.76 20.9313L106.612 17.0637C106.349 17.0433 106.089 17.017 105.827 16.9908L103.112 20.4175L101.606 16.1881C101.583 16.1822 101.562 16.1735 101.539 16.1676L98.1705 19.1157L97.5196 15.1519L89.1716 19.2646C91.1244 20.9167 92.8377 22.8723 94.23 25.1052C95.9405 27.8461 95.1174 30.006 94.125 31.3341C93.9936 31.5093 93.8739 31.6581 93.763 31.7865C93.7543 35.908 93.7543 44.1188 93.7572 51.3343H99.3848V56.8684H93.7601C93.7601 57.5018 93.7601 58.1148 93.7601 58.6957H99.3819V64.2298H99.1104V65.0092H100.657V70.8119H110.657L110.678 68.004L112.059 68.0127L112.164 50.0412L124.388 50.1083L124.283 68.0798L125.663 68.0886L125.643 70.809L134.732 70.8148V22.4082L108.836 9.57099V9.57683ZM107.377 64.2386H101.518V58.7044H107.377V64.2386ZM107.377 56.8772H101.518V51.343H107.377V56.8772ZM121.904 40.6161H120.585V45.2338H121.904V46.4948H95.6953V45.2338H97.0059V40.6161H95.6953V38.3949H96.9533V23.1584H120.649V38.3949H121.907V40.6161H121.904Z" fill="white"/>
<path d="M3.41791 66.3022V69.8779C3.41791 70.7448 4.0513 71.4453 4.82772 71.4453H9.21479C9.99121 71.4453 10.6363 70.7419 10.6363 69.8779V66.3022H3.42082H3.41791Z" fill="white"/>
<path fill-rule="evenodd" clip-rule="evenodd" d="M8.11734 28.3277H7.7875H4.13307C2.29418 28.3277 1.69873 31.2232 3.44714 31.7749L5.2977 32.3557L5.56332 32.4375" fill="white"/>
<path fill-rule="evenodd" clip-rule="evenodd" d="M41.6348 21.1998H13.3305L13.7683 19.3259H41.235L41.6348 21.1998Z" fill="white"/>
<path d="M21.0888 19.9885H13.9171L14.8249 15.4759C14.9913 14.6411 15.7356 14.034 16.5879 14.034H18.4181C19.2733 14.034 20.0147 14.6411 20.1811 15.4759L21.0888 19.9914V19.9885ZM14.8249 19.2471H20.184L19.4543 15.6218C19.355 15.1315 18.9201 14.7783 18.4181 14.7783H16.5879C16.0859 14.7783 15.651 15.1344 15.5517 15.6247L14.822 19.25L14.8249 19.2471Z" fill="white"/>
<path d="M41.0773 19.9885H33.9056L34.8134 15.4759C34.9798 14.6411 35.7212 14.034 36.5764 14.034H38.4065C39.2618 14.034 40.0032 14.6411 40.1695 15.4759L41.0773 19.9914V19.9885ZM34.8105 19.2441H40.1695L39.4398 15.6189C39.3406 15.1285 38.9057 14.7753 38.4036 14.7753H36.5735C36.0714 14.7753 35.6365 15.1315 35.5373 15.6218L34.8076 19.2471L34.8105 19.2441Z" fill="white"/>
<path d="M108.76 1.83597L100.698 5.86402V0H92.5108V9.95628L82.213 15.0993C83.8213 15.7386 85.345 16.5413 86.7781 17.487L108.594 6.51493H108.924L111.002 7.61535C111.411 6.77179 112.336 6.22596 113.425 6.22596C113.722 6.22596 114.023 6.26683 114.315 6.34855C114.548 6.41569 114.773 6.50325 114.98 6.61709L115.325 5.38824L108.757 1.83597H108.76Z" fill="white"/>
<path d="M96.606 67.572V65.9461H95.9609C95.5669 65.8527 95.0648 65.8907 94.6824 65.806C92.9574 65.4178 91.9095 64.9858 91.2907 64.189C91.279 64.189 91.2703 64.1861 91.2586 64.1832C91.2557 59.9916 91.2353 38.0767 91.2586 31.1794C91.2761 31.1794 91.2936 31.1794 91.3082 31.1794C91.5417 30.044 91.3783 30.8116 92.1255 29.8134C92.9691 28.6809 92.8582 27.6593 92.1109 26.4625C87.6801 19.358 80.1056 15.8057 72.5369 15.8057C64.9158 15.8057 57.3033 19.4047 52.9075 26.591C52.2157 27.7235 51.8888 28.6955 52.9221 29.8747C53.3074 30.3154 53.608 30.7854 53.8415 31.2816C53.8561 31.2816 53.8766 31.2845 53.8941 31.2874L53.8561 64.1131C53.1994 64.8808 52.0085 65.2777 49.8456 65.8732C49.7405 65.9024 49.6325 65.9228 49.5216 65.9461H48.6459V67.572H47.2157V70.8236H98.1501V67.572H96.6031H96.606ZM63.4446 63.3484C63.0243 64.2766 62.315 64.7494 61.273 64.7815C61.2438 64.7815 61.2117 64.7815 61.1825 64.7815C60.1638 64.7815 59.5596 64.2444 59.1743 63.3629C59.1685 57.3559 59.1539 37.8987 59.1743 31.4567C60.4645 31.4713 61.9181 31.4801 63.4797 31.483L63.4417 63.3484H63.4446ZM76.6117 63.1294C76.4803 63.1703 76.3286 63.1966 76.1476 63.1966C76.1388 63.1966 76.1301 63.1966 76.1242 63.1966C75.7944 63.1937 75.558 63.0944 75.3858 62.9397C75.3741 62.6858 75.3478 62.4464 75.3478 62.4464L75.0384 62.3267C75.0092 62.2187 74.9859 62.1078 74.9684 61.9911V55.8468L75.3332 55.0237L75.4062 54.8544H75.6222V54.6968H69.5568V54.8544H69.7698L69.8428 55.0237L70.2077 55.8468V61.2351C70.1931 61.3489 70.1814 61.4978 70.1697 61.6992C70.1581 61.9035 70.1405 62.1283 70.0938 62.3443L69.8282 62.4464C69.8282 62.4464 69.799 62.7296 69.7874 63.0039C69.6356 63.1645 69.4254 63.2725 69.1219 63.2812C69.1043 63.2812 69.0868 63.2812 69.0693 63.2812C68.9584 63.2812 68.8562 63.2695 68.7658 63.2491C68.7628 58.8153 68.7453 39.1742 68.7628 31.4771C71.3606 31.4684 74.0548 31.4509 76.6496 31.4275L76.6146 63.1294H76.6117ZM85.9375 63.5293C85.5726 64.3612 84.84 64.7407 83.8651 64.7728C83.8301 64.7728 83.798 64.7728 83.7629 64.7728C82.9106 64.7728 82.3269 64.4254 81.9299 63.7833C81.924 58.3074 81.9095 37.8782 81.9299 31.3692C83.3893 31.3487 84.7554 31.3312 85.9754 31.3079L85.9375 63.5293Z" fill="white"/>
<path fill-rule="evenodd" clip-rule="evenodd" d="M49.9449 32.3586L51.2438 31.95C51.1562 31.8128 51.0628 31.6815 50.9548 31.5589C49.9595 30.4234 49.6501 29.3113 49.6618 28.3277H47.1253L49.6793 32.4404L49.9449 32.3586Z" fill="white"/>
<path fill-rule="evenodd" clip-rule="evenodd" d="M51.2759 48.7394C51.1912 48.7861 51.1007 48.8211 51.0103 48.8299L41.0569 49.6734C40.4556 49.723 40.0732 49.472 40.0732 48.8736V46.8713C40.0732 46.4364 40.4644 45.911 40.8905 45.8701L50.8439 45.0266C51.0073 45.012 51.1533 45.0266 51.2817 45.0558L51.2905 36.3663L49.2998 33.1613L43.8503 24.3843C43.1322 23.2313 41.7983 22.4491 40.4381 22.4491H14.8162C13.4473 22.4491 12.1133 23.2342 11.3953 24.3843L5.94575 33.1613L2.94223 38.0096L1.80678 39.8281C0.379455 42.131 0.0467031 46.1095 0.0467031 49.7989L0 58.7073H51.2613L51.273 48.7423L51.2759 48.7394ZM6.38942 36.9384L13.4152 25.6336C13.6983 25.1753 14.2733 24.8163 14.8162 24.8163H40.4381C40.9723 24.8163 41.5473 25.1753 41.8392 25.6336L48.8561 36.9384C49.148 37.4054 48.8561 37.9716 48.2636 37.9716H6.98195C6.38942 37.9716 6.09753 37.4054 6.38942 36.9384ZM15.1723 48.8707C15.1723 49.472 14.7899 49.723 14.1974 49.6705L4.23529 48.8269C3.80913 48.7948 3.418 48.2607 3.418 47.8345V45.8322C3.418 45.2221 3.80038 44.974 4.40166 45.0237L14.355 45.8672C14.7812 45.9081 15.1723 46.4335 15.1723 46.8684V48.8707ZM34.9039 55.879C34.9039 56.1533 34.6792 56.381 34.4048 56.381H20.8379C20.5635 56.381 20.3387 56.1562 20.3387 55.879V53.792C20.3387 53.5176 20.5635 53.2928 20.8379 53.2928H34.4048C34.6792 53.2928 34.9039 53.5176 34.9039 53.792V55.879ZM38.4591 55.4119C38.4591 55.9461 38.0154 56.381 37.49 56.381C36.9646 56.381 36.521 55.9461 36.521 55.4119V48.8707C36.521 48.4708 36.1882 48.1352 35.7854 48.1352H19.4572C19.0486 48.1352 18.7217 48.4679 18.7217 48.8707V55.4119C18.7217 55.9461 18.2809 56.381 17.7526 56.381C17.2243 56.381 16.7835 55.9461 16.7835 55.4119V48.8707C16.7835 47.4025 17.9861 46.2 19.4543 46.2H35.7825C37.2507 46.2 38.4533 47.4025 38.4533 48.8707V55.4119H38.4591Z" fill="white"/>
<path d="M44.329 65.018H46.0482V63.3921H49.186C49.7055 63.2491 50.6308 62.9923 51.2584 62.7558V59.8253H2.81381H1.51199C0.680108 59.8253 0.00292969 60.412 0.00292969 61.1359V64.2123C0.00292969 64.9362 0.677189 65.5229 1.51199 65.5229H44.3319V65.015L44.329 65.018Z" fill="white"/>
<path d="M124.7 2.05489C124.814 2.05489 124.928 2.08992 125.024 2.15997C126.595 3.28373 127.552 3.59605 129.683 3.59605C129.835 3.59605 129.992 3.59605 130.159 3.59022H130.164C130.337 3.59022 130.503 3.66903 130.608 3.80621C130.716 3.94632 130.751 4.12729 130.704 4.29658L128.416 12.4402C128.203 13.1933 127.456 13.6633 126.574 13.6633C126.341 13.6633 126.101 13.6311 125.856 13.5611C124.689 13.2342 123.985 12.2301 124.254 11.2785C124.464 10.5342 125.229 10.0643 126.11 10.0643C126.338 10.0643 126.574 10.0964 126.811 10.1635C127.006 10.219 127.19 10.2949 127.359 10.3883C127.418 10.4204 127.482 10.435 127.543 10.435C127.701 10.435 127.853 10.3357 127.899 10.1664L128.95 6.42444C126.881 6.39234 126.04 6.16466 124.546 5.21311L123.483 8.99889C123.27 9.75196 122.523 10.2219 121.641 10.2219C121.408 10.2219 121.168 10.1898 120.923 10.1197C119.756 9.79283 119.052 8.78873 119.321 7.83718C119.531 7.09287 120.296 6.62293 121.177 6.62293C121.405 6.62293 121.641 6.65503 121.878 6.72217C122.073 6.77763 122.257 6.85352 122.426 6.94692C122.485 6.97903 122.549 6.99362 122.61 6.99362C122.768 6.99362 122.92 6.89438 122.966 6.72509L124.166 2.45769C124.216 2.28256 124.347 2.14245 124.516 2.08408C124.578 2.06364 124.639 2.05197 124.7 2.05197" fill="white"/>
<path d="M114.312 40.6161H113.109V45.2338H114.312V40.6161Z" fill="white"/>
<path d="M109.356 40.6161H108.153V45.2338H109.356V40.6161Z" fill="white"/>
<path d="M119.224 24.5448H115.03V38.3949H119.224V24.5448Z" fill="white"/>
<path d="M111.834 40.6161H110.631V45.2338H111.834V40.6161Z" fill="white"/>
<path d="M113.646 24.5448H103.874V38.3949H113.646V24.5448Z" fill="white"/>
<path d="M119.271 40.6161H118.068V45.2338H119.271V40.6161Z" fill="white"/>
<path d="M116.793 40.6161H115.59V45.2338H116.793V40.6161Z" fill="white"/>
<path d="M104.399 40.6161H103.197V45.2338H104.399V40.6161Z" fill="white"/>
<path d="M99.4432 40.6161H98.2406V45.2338H99.4432V40.6161Z" fill="white"/>
<path d="M101.921 40.6161H100.719V45.2338H101.921V40.6161Z" fill="white"/>
<path d="M106.878 40.6161H105.675V45.2338H106.878V40.6161Z" fill="white"/>
<path d="M102.49 24.5448H98.296V38.3949H102.49V24.5448Z" fill="white"/>
</svg>
