<?xml version="1.0" encoding="UTF-8"?>
<svg id="Layer_1" data-name="Layer 1" xmlns="http://www.w3.org/2000/svg" viewBox="0 0 612 612">
  <defs>
    <style>
      .cls-1, .cls-2 {
        fill: #003;
      }

      .cls-2 {
        fill-rule: evenodd;
      }
    </style>
  </defs>
  <g>
    <g>
      <path class="cls-1" d="M508.38,97.06c-1.14,3.22-4.39,5.36-8.29,5.36-1.02,0-2.05-.14-3.06-.43-5.2-1.46-8.29-6.11-7.04-10.58.35-1.25,1.03-2.35,1.95-3.25l-1.55-.84c-1.57,2.05-4.19,3.32-7.2,3.32-1.02,0-2.05-.14-3.06-.43-5.2-1.46-8.29-6.11-7.04-10.58.14-.48.33-.93.55-1.37l-5.39-2.92-2.97,10.56c-.27.95-.72,1.81-1.3,2.57l69.04,36.53,2.69-13.16-27.33-14.79Z"/>
      <path class="cls-1" d="M468.42,59.5c.3,0,.6.09.85.28,1.03.79,4.17,2.47,7.3,2.55.46.01.91.2,1.2.57.29.37.38.85.25,1.31l-1.28,4.55c-.31,1.1-1.3,1.88-2.42,1.88-.06,0-.11,0-.17,0-2.1-.15-3.95-.83-4.79-1.19-.19-.08-.38-.12-.58-.12-.68,0-1.32.47-1.51,1.17l-4.13,14.71c-.75,2.68-3.5,4.39-6.65,4.39-.79,0-1.61-.11-2.43-.34-4.06-1.14-6.59-4.8-5.65-8.16.75-2.68,3.49-4.37,6.62-4.37.8,0,1.62.11,2.45.34,1.03.29,1.96.74,2.76,1.31.22.16.46.23.7.23.54,0,1.06-.36,1.23-.93l4.8-17.09c.13-.46.48-.84.93-1,.16-.06.33-.09.5-.09"/>
      <g>
        <g>
          <path class="cls-1" d="M141.38,482.3c-1.7-2.48-4-4.51-6.92-6.1-2.91-1.58-6.19-2.38-9.83-2.38-1.94,0-3.9.28-5.88.84-1.98.56-3.78,1.46-5.4,2.7-1.62,1.24-2.93,2.78-3.95,4.62-1.01,1.84-1.52,4.05-1.52,6.62s.46,4.56,1.4,6.23c.93,1.67,2.18,3.08,3.76,4.24,1.58,1.16,3.44,2.14,5.58,2.95,2.14.82,4.43,1.65,6.86,2.51,2.91.94,5.86,2.01,8.86,3.21,2.99,1.2,5.7,2.78,8.13,4.75,2.43,1.97,4.41,4.43,5.95,7.39,1.54,2.96,2.31,6.7,2.31,11.24s-.83,8.8-2.49,12.27c-1.66,3.47-3.86,6.34-6.62,8.61-2.75,2.27-5.93,3.96-9.53,5.07-3.6,1.11-7.3,1.67-11.1,1.67-5.42,0-10.66-1.11-15.71-3.34-5.06-2.23-9.25-5.52-12.56-9.89l9.34-8.35c2.02,3.17,4.73,5.74,8.13,7.71,3.4,1.97,7.08,2.95,11.04,2.95,2.02,0,4.05-.3,6.07-.9,2.02-.6,3.86-1.54,5.52-2.83,1.66-1.28,3.01-2.89,4.07-4.82,1.05-1.93,1.58-4.26,1.58-7s-.55-5.03-1.64-6.87c-1.09-1.84-2.57-3.4-4.43-4.69-1.86-1.28-4.02-2.38-6.49-3.28-2.47-.9-5.08-1.82-7.83-2.76-2.75-.85-5.46-1.9-8.13-3.15-2.67-1.24-5.06-2.82-7.16-4.75-2.1-1.93-3.8-4.3-5.1-7.13-1.3-2.83-1.94-6.34-1.94-10.53,0-4.54.87-8.43,2.61-11.69,1.74-3.25,4-5.95,6.8-8.09,2.79-2.14,5.95-3.7,9.47-4.69s7.06-1.48,10.62-1.48c5.01,0,9.71.94,14.08,2.83,4.37,1.88,7.89,4.41,10.56,7.58l-8.5,8.73Z"/>
          <path class="cls-1" d="M216.98,535.35h.24l25.36-69.88h18.69v90.94h-12.02v-76.04h-.24l-28.52,76.04h-7.64l-28.4-76.04h-.24v76.04h-11.65v-90.94h18.69l25.73,69.88Z"/>
          <path class="cls-1" d="M290.52,556.42h-13.35l37.26-90.94h10.92l36.89,90.94h-13.59l-8.74-22.35h-40.78l-8.62,22.35ZM303.39,522.89h32.16l-16.02-42.64-16.14,42.64Z"/>
          <path class="cls-1" d="M390.16,556.42h-12.02v-90.94h27.55c4.13,0,8.05.45,11.77,1.35,3.72.9,6.98,2.33,9.77,4.3,2.79,1.97,4.99,4.56,6.61,7.77,1.62,3.21,2.43,7.13,2.43,11.75,0,6.68-1.94,12.07-5.82,16.19-3.88,4.11-8.9,6.72-15.05,7.83l24.03,41.75h-14.56l-21.84-40.46h-12.86v40.46ZM390.16,505.3h13.83c2.83,0,5.46-.26,7.89-.77,2.43-.51,4.55-1.35,6.37-2.51,1.82-1.16,3.25-2.65,4.31-4.5,1.05-1.84,1.58-4.13,1.58-6.87s-.53-5.03-1.58-6.87c-1.05-1.84-2.45-3.32-4.19-4.43-1.74-1.11-3.78-1.91-6.13-2.38-2.35-.47-4.81-.71-7.4-.71h-14.68v29.03Z"/>
          <path class="cls-1" d="M486.15,556.42h-12.01v-79.77h-27.55v-11.18h67.11v11.18h-27.55v79.77Z"/>
        </g>
        <g>
          <path class="cls-1" d="M170.73,368.95c0,5.41-.95,9.96-2.84,13.66-1.89,3.7-4.45,6.69-7.66,8.95-3.21,2.27-6.92,3.92-11.12,4.97-4.2,1.05-8.56,1.57-13.09,1.57h-10.5v34.9h-21.12v-92.56h32.11c4.77,0,9.24.5,13.4,1.51,4.16,1,7.78,2.61,10.87,4.84,3.09,2.22,5.52,5.14,7.29,8.76,1.77,3.62,2.65,8.09,2.65,13.4ZM149.61,369.08c0-2.18-.42-3.96-1.24-5.36-.82-1.39-1.94-2.48-3.33-3.27-1.4-.78-2.99-1.31-4.75-1.57-1.77-.26-3.6-.39-5.5-.39h-9.27v21.83h8.89c1.98,0,3.87-.17,5.68-.52,1.81-.35,3.44-.96,4.88-1.83,1.44-.87,2.57-2.02,3.4-3.46.82-1.44,1.24-3.25,1.24-5.43Z"/>
          <path class="cls-1" d="M240.27,433.01l-6.79-18.17h-33.84l-6.42,18.17h-22.97l36.68-92.56h20.5l36.31,92.56h-23.47ZM216.8,365.16l-11.12,31.77h21.98l-10.87-31.77Z"/>
          <path class="cls-1" d="M322.77,433.01l-18.99-36.74h-7.2v36.74h-20.63v-92.56h33.35c4.2,0,8.3.46,12.29,1.37s7.58,2.46,10.75,4.64c3.17,2.18,5.7,5.06,7.6,8.63,1.89,3.58,2.84,8.02,2.84,13.33,0,6.28-1.61,11.55-4.82,15.82-3.21,4.27-7.66,7.32-13.34,9.15l22.85,39.61h-24.7ZM321.9,368.82c0-2.18-.44-3.94-1.3-5.29-.87-1.35-1.99-2.4-3.35-3.14-1.37-.74-2.9-1.24-4.59-1.5-1.7-.26-3.33-.39-4.9-.39h-11.29v21.57h10.05c1.74,0,3.52-.15,5.34-.46,1.82-.31,3.47-.85,4.96-1.64,1.49-.78,2.71-1.92,3.66-3.4.95-1.48,1.43-3.4,1.43-5.75Z"/>
          <path class="cls-1" d="M398.73,359.54v73.47h-21.12v-73.47h-24.7v-19.09h70.52v19.09h-24.7Z"/>
          <path class="cls-1" d="M484.57,393.79v39.22h-21.12v-39.22l-32.86-53.34h25.57l18.65,34.25,18.65-34.25h24.7l-33.6,53.34Z"/>
        </g>
      </g>
      <polygon class="cls-1" points="488.6 289.14 488.6 229.17 454.53 229.17 454.53 289.14 449.87 289.14 449.87 295.87 493.48 295.87 493.48 289.14 488.6 289.14"/>
      <path class="cls-1" d="M439.32,86.09l-36.04,17.76,4.3,1.32s.05.02.08.03l6.3,2.05c.43.12.86.26,1.3.38l4.97,1.18c.55.12,1.1.24,1.66.35.8.15,1.61.27,2.42.41l3.51.51c3.73.47,7.49.72,11.23.72l6.01-.22c1.76-.12,3.51-.28,5.26-.5l3.46-.5c.83-.14,1.65-.26,2.47-.42.56-.11,1.12-.24,1.68-.36l4.83-1.15c.54-.15,1.08-.31,1.62-.47l6-1.96s.06-.02.1-.04l4.44-1.46,2.17,1.09-1.75,13.98-11.38-10.18c-.14.04-.29.09-.43.13l-5.14,14.48-9.29-11.74c-.95.1-1.89.19-2.84.27l-7.2,13.24-7.36-13.25c-.9-.07-1.79-.16-2.69-.25l-9.3,11.74-5.16-14.49c-.08-.02-.15-.05-.23-.07l-11.54,10.1-2.23-13.58h0s-28.6,14.09-28.6,14.09c6.69,5.66,12.56,12.36,17.33,20.01,5.86,9.39,3.04,16.79-.36,21.34-.45.6-.86,1.11-1.24,1.55-.03,14.12-.03,42.25-.02,66.97h19.28v18.96h-19.27c0,2.17,0,4.27,0,6.26h19.26v18.96h-.93v2.67h5.3v19.88h34.26l.07-9.62,4.73.03.36-61.57,41.88.23-.36,61.57,4.73.03-.07,9.32,31.14.02v-165.84l-88.72-43.98ZM434.32,273.36h-20.07v-18.96h20.07v18.96ZM434.32,248.14h-20.07v-18.96h20.07v18.96ZM484.09,192.43h-4.52v15.82h4.52v4.32h-89.79v-4.32h4.49v-15.82h-4.49v-7.61h4.31v-52.2h81.18v52.2h4.31v7.61Z"/>
      <path class="cls-1" d="M78.16,280.43v12.25c0,2.97,2.17,5.37,4.83,5.37h15.03c2.66,0,4.87-2.41,4.87-5.37v-12.25h-24.72Z"/>
      <path class="cls-2" d="M94.26,150.33h-1.13s-12.52,0-12.52,0c-6.3,0-8.34,9.92-2.35,11.81l6.34,1.99.91.28"/>
      <polygon class="cls-2" points="209.09 125.91 112.12 125.91 113.62 119.49 207.72 119.49 209.09 125.91"/>
      <path class="cls-1" d="M138.7,121.76h-24.57l3.11-15.46c.57-2.86,3.12-4.94,6.04-4.94h6.27c2.93,0,5.47,2.08,6.04,4.94l3.11,15.47ZM117.24,119.22h18.36l-2.5-12.42c-.34-1.68-1.83-2.89-3.55-2.89h-6.27c-1.72,0-3.21,1.22-3.55,2.9l-2.5,12.42Z"/>
      <path class="cls-1" d="M207.18,121.76h-24.57l3.11-15.46c.57-2.86,3.11-4.94,6.04-4.94h6.27c2.93,0,5.47,2.08,6.04,4.94l3.11,15.47ZM185.71,119.21h18.36l-2.5-12.42c-.34-1.68-1.83-2.89-3.55-2.89h-6.27c-1.72,0-3.21,1.22-3.55,2.9l-2.5,12.42Z"/>
      <path class="cls-1" d="M439.06,59.57l-27.62,13.8v-20.09h-28.05v34.11l-35.28,17.62c5.51,2.19,10.73,4.94,15.64,8.18l74.74-37.59h1.13l7.12,3.77c1.4-2.89,4.57-4.76,8.3-4.76,1.02,0,2.05.14,3.05.42.8.23,1.57.53,2.28.92l1.18-4.21-22.5-12.17Z"/>
      <path class="cls-1" d="M397.42,284.78v-5.57h-2.21c-1.35-.32-3.07-.19-4.38-.48-5.91-1.33-9.5-2.81-11.62-5.54-.04,0-.07-.01-.11-.02-.01-14.36-.08-89.44,0-113.07.06,0,.12,0,.17,0,.8-3.89.24-1.26,2.8-4.68,2.89-3.88,2.51-7.38-.05-11.48-15.18-24.34-41.13-36.51-67.06-36.51-26.11,0-52.19,12.33-67.25,36.95-2.37,3.88-3.49,7.21.05,11.25,1.32,1.51,2.35,3.12,3.15,4.82.05,0,.12.01.18.02l-.13,112.46c-2.25,2.63-6.33,3.99-13.74,6.03-.36.1-.73.17-1.11.25h-3v5.57h-4.9v11.14h174.5v-11.14h-5.3ZM283.81,270.31c-1.44,3.18-3.87,4.8-7.44,4.91-.1,0-.21,0-.31,0-3.49,0-5.56-1.84-6.88-4.86-.02-20.58-.07-87.24,0-109.31,4.42.05,9.4.08,14.75.09l-.13,109.17ZM328.92,269.56c-.45.14-.97.23-1.59.23-.03,0-.06,0-.08,0-1.13-.01-1.94-.35-2.53-.88-.04-.87-.13-1.69-.13-1.69l-1.06-.41c-.1-.37-.18-.75-.24-1.15v-21.05l1.25-2.82.25-.58h.74v-.54h-20.78v.54s.73,0,.73,0l.25.58,1.25,2.82v18.46c-.05.39-.09.9-.13,1.59-.04.7-.1,1.47-.26,2.21l-.91.35s-.1.97-.14,1.91c-.52.55-1.24.92-2.28.95-.06,0-.12,0-.18,0-.38,0-.73-.04-1.04-.11-.01-15.19-.07-82.48-.01-108.85,8.9-.03,18.13-.09,27.02-.17l-.12,108.61ZM360.87,270.93c-1.25,2.85-3.76,4.15-7.1,4.26-.12,0-.23,0-.35,0-2.92,0-4.92-1.19-6.28-3.39-.02-18.76-.07-88.75,0-111.05,5-.07,9.68-.13,13.86-.21l-.13,110.39Z"/>
      <path class="cls-2" d="M237.56,164.14l4.45-1.4c-.3-.47-.62-.92-.99-1.34-3.41-3.89-4.47-7.7-4.43-11.07h-8.69l8.75,14.09.91-.28Z"/>
      <path class="cls-2" d="M242.12,220.26c-.29.16-.6.28-.91.31l-34.1,2.89c-2.06.17-3.37-.69-3.37-2.74v-6.86c0-1.49,1.34-3.29,2.8-3.43l34.1-2.89c.56-.05,1.06,0,1.5.1l.03-29.77-6.82-10.98-18.67-30.07c-2.46-3.95-7.03-6.63-11.69-6.63h-87.78c-4.69,0-9.26,2.69-11.72,6.63l-18.67,30.07-10.29,16.61-3.89,6.23c-4.89,7.89-6.03,21.52-6.03,34.16l-.16,30.52h175.62l.04-34.14ZM88.34,179.83l24.07-38.73c.97-1.57,2.94-2.8,4.8-2.8h87.78c1.83,0,3.8,1.23,4.8,2.8l24.04,38.73c1,1.6,0,3.54-2.03,3.54H90.37c-2.03,0-3.03-1.94-2.03-3.54ZM118.43,220.71c0,2.06-1.31,2.92-3.34,2.74l-34.13-2.89c-1.46-.11-2.8-1.94-2.8-3.4v-6.86c0-2.09,1.31-2.94,3.37-2.77l34.1,2.89c1.46.14,2.8,1.94,2.8,3.43v6.86ZM186.03,244.72c0,.94-.77,1.72-1.71,1.72h-46.48c-.94,0-1.71-.77-1.71-1.72v-7.15c0-.94.77-1.71,1.71-1.71h46.48c.94,0,1.71.77,1.71,1.71v7.15ZM198.21,243.12c0,1.83-1.52,3.32-3.32,3.32s-3.32-1.49-3.32-3.32v-22.41c0-1.37-1.14-2.52-2.52-2.52h-55.94c-1.4,0-2.52,1.14-2.52,2.52v22.41c0,1.83-1.51,3.32-3.32,3.32s-3.32-1.49-3.32-3.32v-22.41c0-5.03,4.12-9.15,9.15-9.15h55.94c5.03,0,9.15,4.12,9.15,9.15v22.41Z"/>
      <path class="cls-1" d="M218.32,276.03h5.89v-5.57h10.75c1.78-.49,4.95-1.37,7.1-2.18v-10.04s-165.97,0-165.97,0h-4.46c-2.85,0-5.17,2.01-5.17,4.49v10.54c0,2.48,2.31,4.49,5.17,4.49h146.7v-1.74Z"/>
      <path class="cls-1" d="M493.67,60.32c.39,0,.78.12,1.11.36,5.38,3.85,8.66,4.92,15.96,4.92.52,0,1.06,0,1.63-.02h.02c.59,0,1.16.27,1.52.74.37.48.49,1.1.33,1.68l-7.84,27.9c-.73,2.58-3.29,4.19-6.31,4.19-.8,0-1.62-.11-2.46-.35-4-1.12-6.41-4.56-5.49-7.82.72-2.55,3.34-4.16,6.36-4.16.78,0,1.59.11,2.4.34.67.19,1.3.45,1.88.77.2.11.42.16.63.16.54,0,1.06-.34,1.22-.92l3.6-12.82c-7.09-.11-9.97-.89-15.09-4.15l-3.64,12.97c-.73,2.58-3.29,4.19-6.31,4.19-.8,0-1.62-.11-2.46-.35-4-1.12-6.41-4.56-5.49-7.82.72-2.55,3.34-4.16,6.36-4.16.78,0,1.59.11,2.4.34.67.19,1.3.45,1.88.77.2.11.42.16.63.16.54,0,1.06-.34,1.22-.92l4.11-14.62c.17-.6.62-1.08,1.2-1.28.21-.07.42-.11.63-.11"/>
    </g>
    <path class="cls-1" d="M534.77,64.63c.3,0,.6.09.85.28,1.03.79,4.17,2.47,7.3,2.55.46.01.91.2,1.2.57.29.37.38.85.25,1.31l-1.28,4.55c-.31,1.1-1.3,1.88-2.42,1.88-.06,0-.11,0-.17,0-2.1-.15-3.95-.83-4.79-1.19-.19-.08-.38-.12-.58-.12-.68,0-1.32.47-1.51,1.17l-4.13,14.71c-.75,2.68-3.5,4.39-6.65,4.39-.79,0-1.61-.11-2.43-.34-4.06-1.14-6.59-4.8-5.65-8.16.75-2.68,3.49-4.37,6.62-4.37.8,0,1.62.11,2.45.34,1.03.29,1.96.74,2.76,1.31.22.16.46.23.7.23.54,0,1.06-.36,1.23-.93l4.8-17.09c.13-.46.48-.84.93-1,.16-.06.33-.09.5-.09"/>
  </g>
  <g>
    <rect class="cls-1" x="453.96" y="192.43" width="4.12" height="15.82"/>
    <rect class="cls-1" x="436.98" y="192.43" width="4.12" height="15.82"/>
    <rect class="cls-1" x="460.54" y="137.37" width="14.37" height="47.45"/>
    <rect class="cls-1" x="445.47" y="192.43" width="4.12" height="15.82"/>
    <rect class="cls-1" x="422.32" y="137.37" width="33.48" height="47.45"/>
    <rect class="cls-1" x="470.95" y="192.43" width="4.12" height="15.82"/>
    <rect class="cls-1" x="462.46" y="192.43" width="4.12" height="15.82"/>
    <rect class="cls-1" x="420" y="192.43" width="4.12" height="15.82"/>
    <rect class="cls-1" x="403.02" y="192.43" width="4.12" height="15.82"/>
    <rect class="cls-1" x="411.51" y="192.43" width="4.12" height="15.82"/>
    <rect class="cls-1" x="428.49" y="192.43" width="4.12" height="15.82"/>
    <rect class="cls-1" x="403.21" y="137.37" width="14.37" height="47.45"/>
  </g>
</svg>
